/* XPM */
static char * icon_32x32_new_xpm[] = {
"32 32 64 1",
" 	c None",
".	c #431517",
"+	c #3F161A",
"@	c #471516",
"#	c #461415",
"$	c #481515",
"%	c #FFFFFF",
"&	c #000000",
"*	c #471414",
"=	c #0000FF",
"-	c #451414",
";	c #431414",
">	c #401313",
",	c #808080",
"'	c #3F1212",
")	c #3D1212",
"!	c #3B1212",
"~	c #3A1111",
"{	c #370F10",
"]	c #381011",
"^	c #330F10",
"/	c #350F10",
"(	c #010101",
"_	c #320E0F",
":	c #300E0E",
"<	c #2F0D0D",
"[	c #2E0D0D",
"}	c #08080A",
"|	c #2C0D0D",
"1	c #2B0C0C",
"2	c #290C0C",
"3	c #280B0B",
"4	c #260B0B",
"5	c #00FE00",
"6	c #00F800",
"7	c #00F300",
"8	c #00F900",
"9	c #00FF00",
"0	c #240B0B",
"a	c #230A0A",
"b	c #210A0A",
"c	c #200909",
"d	c #1E0909",
"e	c #421313",
"f	c #1B0708",
"g	c #1C0809",
"h	c #190708",
"i	c #180607",
"j	c #170606",
"k	c #FF0000",
"l	c #150606",
"m	c #120505",
"n	c #0F0404",
"o	c #110404",
"p	c #0D0404",
"q	c #0C0303",
"r	c #140505",
"s	c #0A0303",
"t	c #070202",
"u	c #090202",
"v	c #040101",
"w	c #050202",
"x	c #020101",
"y	c #010000",
".+..................@@@@@@@@@@@@",
"#@@@@#@#@###@@@@@@$$$$%%%%%$$$@@",
"@$@@$@@@$$@$$@$@@@$$$%&&&&&%$$@@",
"****=======***-***$$%&&&&&&&%&@@",
";;;=&&&&&&&=;;;;;;$%&&&&&&&&&%@@",
">>>=&&&&&&&=,,,,,,%&&&&&&&&&&&%@",
"'''=&&&&&&&=''''''%&&&&&&&&&&&%@",
")!)=&&&&&&&=))!)))%&&&&&&&&&&&%@",
"~~~=&&&&&&&=,,~~~~%&&&&&&&&&&&%@",
"{{{=&&&&&&&={{,]{{%&&&&&&&&&&&%@",
"^/^=&&&&&&&=/^,/^/$%&&(&&&&&&%@@",
"___:=======:::,:_:^$%&&(&&&&%$@@",
"<<<<[<,<<<<<<<,<<[_^$%&&&}}%$$@@",
"|||[[|,|||||||,|||_^{$%%%%%$$$$$",
"122221,2222122,122|<_/{~,'>;*@#.",
"334334,44444356789|<_^]~,'>;*@@+",
"000000,0aaa05&&&&&9<_^{~,'>;*@@.",
"bbbbbb,bbbbb6&&&&&9<_/{~,'>;*$#.",
"cdcddd,dddcc7&&&&&9<_/{~,'e;-$@.",
"fffggf,ffggg8&&&&&9<_^]~,'>;*@#.",
"hhhhhi,hhhhh9&&&&&9<:/{~,'>;*@@.",
"jjjjjkkkjjjhg99999|<_^{~,'>;-$@.",
"llllk&&&kllhfcba42|<_/{~,'>;*$@.",
"mmmmk&&&kljhfdb042|<_^{~,'e;-@@.",
"noook&&&kllhgdb042|<_^{%%%>;*@#.",
"ppqppkkkrljhfcb031|<_^%&&&%;-@@.",
"ssssssqnrljigdba42|<_^%&&&%;-$@.",
"tutttspnrljhgdb032|<_/%&&&%;*$@.",
"vwwvuspnmljhgcb041|<:/{%%%>;*@#.",
"xxywtspnmljigdba32[[_/{~)'e;*$@.",
"&&xvtspomljifdba42|[:^{~!'>;*@#.",
"&&xwtspomljhgdb042|[_/{~)'>;*$@."};
